<svg width="181" height="43" viewBox="0 0 181 43" fill="none" xmlns="http://www.w3.org/2000/svg">
<path d="M10.483 4.56838C7.22284 4.56838 4.57007 7.22117 4.57007 10.4813C4.57007 13.7415 7.22284 16.3943 10.483 16.3943C13.7432 16.3943 16.396 13.7415 16.396 10.4813C16.396 7.22117 13.7432 4.56838 10.483 4.56838Z" fill="#FAFAF0"/>
<path d="M0.61084 26.604C1.2736 29.3242 2.44688 31.8559 4.10292 34.1314H12.6323C24.4876 34.1314 34.1332 24.4859 34.1332 12.6306V4.10118C31.8576 2.44513 29.326 1.27189 26.6057 0.609125V26.604H0.61084Z" fill="#FAFAF0"/>
<path d="M43.0017 21.4991C43.0017 15.1951 40.2624 9.25619 35.4742 5.15848V35.4725H5.16016C9.25787 40.2607 15.1968 43 21.5008 43C33.3561 43 43.0017 33.3545 43.0017 21.4991Z" fill="#FAFAF0"/>
<path d="M0 21.4991C0 22.7606 0.110774 24.0256 0.328811 25.2629H3.76373C15.6191 25.2629 25.2646 15.6173 25.2646 3.762V0.327055C22.7918 -0.109018 20.21 -0.109018 17.7371 0.327055V17.7354H0.328811C0.110774 18.9727 0 20.2376 0 21.4991Z" fill="#FAFAF0"/>
<path d="M128.019 17.4758H132.492C130.764 12.3191 125.972 8.86683 120.516 8.86683C113.551 8.86683 107.884 14.5341 107.884 21.4991C107.884 28.4642 113.551 34.1314 120.516 34.1314C125.972 34.1314 130.762 30.6792 132.492 25.5224H128.019C126.527 28.2964 123.66 30.0147 120.518 30.0147C115.821 30.0147 112.002 26.1939 112.002 21.4991C112.002 16.8044 115.823 12.9836 120.518 12.9836C123.66 12.9836 126.527 14.7036 128.019 17.4758Z" fill="#FAFAF0"/>
<path d="M169.096 34.1314H180.874V30.3798H168.44V8.86683H164.324V29.3588C164.324 31.9909 166.464 34.1314 169.096 34.1314Z" fill="#FAFAF0"/>
<path d="M92.3974 8.86683C85.4324 8.86683 79.7651 14.5341 79.7651 21.4991C79.7651 28.4642 85.4324 34.1314 92.3974 34.1314C99.3625 34.1314 105.03 28.4642 105.03 21.4991C105.03 14.5341 99.3625 8.86683 92.3974 8.86683ZM92.3974 30.0147C87.701 30.0147 83.8819 26.1939 83.8819 21.4991C83.8819 16.8044 87.7027 12.9836 92.3974 12.9836C97.0922 12.9836 100.913 16.8044 100.913 21.4991C100.913 26.1939 97.0922 30.0147 92.3974 30.0147Z" fill="#FAFAF0"/>
<path d="M75.1467 19.6233H64.1878V12.6185H76.6211V8.86684H60.071V34.1314H64.1878V23.375H75.1467V19.6233Z" fill="#FAFAF0"/>
<path d="M151.499 11.5836C150.816 9.93453 149.22 8.86683 147.435 8.86683C145.649 8.86683 144.053 9.9328 143.37 11.5836L134.031 34.1314H138.486L141.33 27.2685H153.543L156.386 34.1314H160.842L151.503 11.5836H151.499ZM142.882 23.5168L147.397 12.6185H147.473L151.987 23.5168H142.882Z" fill="#FAFAF0"/>
</svg>
